<svg id="Layer_1" data-name="Layer 1" xmlns="http://www.w3.org/2000/svg" width="221.5" height="272.75" viewBox="0 0 221.5 272.75"><title>CodeIgniter logomark logo - Brandlogos.net</title><path d="M344.06,520.27a52.17,52.17,0,0,1-30.95-43.46A61.36,61.36,0,0,1,341,428.56a22.19,22.19,0,0,0,1.7,20.11A18.47,18.47,0,0,0,361.47,456a19.29,19.29,0,0,0,13.36-23.77,19.54,19.54,0,0,0-5.86-9.3,42.7,42.7,0,0,1-15.34-39,40,40,0,0,1,12.45-20.28c-4.6,12.27,8.38,24.38,17.09,30.34a452.38,452.38,0,0,1,44.59,30.52,60.06,60.06,0,0,1,22.73,51.14A56.66,56.66,0,0,1,412,520.28c40.34-9,81.93-41,82.72-86.48a94.18,94.18,0,0,0-55.68-83.87H437.6a13.55,13.55,0,0,1,1,5.63,21.2,21.2,0,0,0,0-3.75,18.36,18.36,0,0,1,0,4.43,19.29,19.29,0,0,1-33.82,7.47c-13.3-17,0-36.44,2.22-55.2a70.12,70.12,0,0,0-29-60.91c9.72,16.21-3.23,37.5-12.65,49.61s-23.07,21.14-34.19,31.71a278.81,278.81,0,0,0-32.81,36.48,111.12,111.12,0,0,0-22.73,93.24A88.72,88.72,0,0,0,344,520.37h.18Z" transform="translate(-273.25 -247.63)" style="fill:#dd4814"/></svg>